<svg width="60" height="54" viewBox="0 0 40 36" version="1.1" xmlns="http://www.w3.org/2000/svg" xmlns:xlink="http://www.w3.org/1999/xlink">
                <title>Group 3</title>
                <desc>Created using Figma</desc>
                <g id="Canvas" transform="translate(490 392)">
                <g id="Group 3">
                <g id="Vector">
                <use xlink:href="#path0_fill" transform="translate(-490 -392)" fill="#993366"/>
                </g>
                <g id="Vector 2">
                <use xlink:href="#path1_fill" transform="translate(-485 -390.5)" fill="#660033"/>
                </g>
                <g id="Vector 3">
                <use xlink:href="#path2_fill" transform="translate(-471.5 -378.5)" fill="#660033"/>
                </g>
                <g id="Vector 4">
                <use xlink:href="#path3_fill" transform="translate(-480 -367.5)" fill="#660033"/>
                </g>
                <g id="Vector 5">
                <use xlink:href="#path4_fill" transform="translate(-462 -372)" fill="#660033"/>
                </g>
                <g id="Vector 6">
                <use xlink:href="#path5_fill" transform="translate(-479.578 -391)" fill="#FF6600"/>
                </g>
                </g>
                </g>
                <defs>
                <path id="path0_fill" d="M 8 35L 0 29.5L 5.5 15L 11.5 10L 15 1.5L 17.5 0L 21.5 0L 24 1.5L 28 11.5L 35.5 17L 37.5 23L 39 25.5L 39.5 30.5L 37.5 33.5L 31.5 35L 28 34.5L 25.5 36L 18.5 33.5L 15.5 36L 12.5 36L 10 34.5L 8 35Z"/>
                <path id="path1_fill" d="M 3.5 17L 0 14.5L 0.5 13.5L 6.5 8.5L 10 0L 11.5 5L 11.5 12.5C 11.5 12.9 6.16667 15.6667 3.5 17Z"/>
                <path id="path2_fill" d="M 10 4.5L 7 0L 2.5 3L 4.5 6.5L 1 12L 0 20L 7 22.5L 7 11L 10 4.5Z"/>
                <path id="path3_fill" d="M 2.5 11.5L 0 10L 2 2.5L 5 0L 3 2L 3.5 4L 2.5 4.5L 2.5 11.5Z"/>
                <path id="path4_fill" d="M 0.5 6L 0 14.5L 3.5 15L 5 8.5L 3 5L 3.5 0L 0.5 6Z"/>
                <path id="path5_fill" d="M 6.5781 1L 6.5781 3C 3.5781 4.5 4.07809 8 4.07809 9C 4.07809 10 2.5781 11.5 1.5781 12C 0.578097 12.5 0.578111 14.5 0.0781113 15C -0.321889 15.4 0.911435 14.8333 1.5781 14.5L 1.5781 15.5C 1.74477 15.3333 2.17811 15.1 2.5781 15.5C 3.07808 16 2.0781 17.5 1.5781 17.5C 1.0781 17.5 1.5781 18.5 2.5781 18.5C 3.5781 18.5 3.07809 20.5 4.57809 19.5C 5.07809 22 5.57809 23.5 7.0781 18.5C 6.0781 16 6.6781 11.8 7.0781 13C 7.4781 14.2 8.24476 13.1667 8.5781 12.5L 9.07809 3.5L 11.5781 2.5L 10.5781 0.5L 8.57809 0L 6.5781 1Z"/>
                </defs>
</svg>